<svg width="179" height="51" viewBox="0 0 179 51" fill="none" xmlns="http://www.w3.org/2000/svg">
<path d="M164.628 16.8638H167.699V21.5747L167.511 23.6606H167.699C168.027 23.1138 168.496 22.6685 169.105 22.3247C169.73 21.9653 170.425 21.7856 171.191 21.7856C172.675 21.7856 173.769 22.2231 174.472 23.0981C175.191 23.9731 175.55 25.1685 175.55 26.6841V33.645H172.48V27.0591C172.48 26.2622 172.292 25.6606 171.917 25.2544C171.542 24.8325 171.019 24.6216 170.347 24.6216C169.925 24.6216 169.55 24.7153 169.222 24.9028C168.894 25.0747 168.613 25.3169 168.378 25.6294C168.16 25.9419 167.988 26.3091 167.863 26.731C167.753 27.1372 167.699 27.5747 167.699 28.0435V33.645H164.628V16.8638Z" fill="white"/>
<path d="M163.459 30.7153C162.959 31.6841 162.255 32.481 161.349 33.106C160.459 33.7153 159.341 34.02 157.998 34.02C157.107 34.02 156.287 33.8716 155.537 33.5747C154.802 33.2622 154.162 32.8325 153.615 32.2856C153.083 31.7388 152.662 31.0981 152.349 30.3638C152.052 29.6138 151.904 28.7935 151.904 27.9028C151.904 27.0122 152.052 26.1919 152.349 25.4419C152.662 24.6919 153.083 24.0513 153.615 23.52C154.162 22.9731 154.802 22.5513 155.537 22.2544C156.287 21.9419 157.107 21.7856 157.998 21.7856C159.326 21.7856 160.443 22.0903 161.349 22.6997C162.255 23.3091 162.919 24.0981 163.341 25.0669L160.529 26.2388C160.263 25.7075 159.919 25.3091 159.498 25.0435C159.091 24.7622 158.576 24.6216 157.951 24.6216C157.544 24.6216 157.162 24.6997 156.802 24.856C156.443 25.0122 156.123 25.231 155.841 25.5122C155.576 25.7935 155.365 26.1372 155.208 26.5435C155.052 26.9497 154.974 27.4028 154.974 27.9028C154.974 28.4028 155.052 28.856 155.208 29.2622C155.365 29.6685 155.576 30.0122 155.841 30.2935C156.123 30.5747 156.443 30.7935 156.802 30.9497C157.162 31.106 157.544 31.1841 157.951 31.1841C158.591 31.1841 159.13 31.0435 159.568 30.7622C160.021 30.4653 160.38 30.0435 160.646 29.4966L163.459 30.7153Z" fill="white"/>
<path d="M151 30.8794C150.469 31.8169 149.75 32.5747 148.844 33.1528C147.953 33.731 146.859 34.02 145.563 34.02C144.688 34.02 143.875 33.8716 143.125 33.5747C142.391 33.2622 141.75 32.8325 141.203 32.2856C140.656 31.7388 140.227 31.0981 139.914 30.3638C139.617 29.6138 139.469 28.7935 139.469 27.9028C139.469 27.0747 139.617 26.2935 139.914 25.5591C140.211 24.8091 140.625 24.1606 141.156 23.6138C141.688 23.0513 142.313 22.606 143.031 22.2778C143.766 21.9497 144.57 21.7856 145.445 21.7856C146.367 21.7856 147.188 21.9419 147.906 22.2544C148.625 22.5513 149.227 22.9731 149.711 23.52C150.195 24.0513 150.563 24.6841 150.813 25.4185C151.063 26.1528 151.188 26.9497 151.188 27.8091C151.188 27.9185 151.188 28.0122 151.188 28.0903C151.172 28.1841 151.164 28.27 151.164 28.3481C151.148 28.4263 151.141 28.5122 151.141 28.606H142.492C142.555 29.0747 142.68 29.481 142.867 29.8247C143.07 30.1528 143.313 30.4341 143.594 30.6685C143.891 30.8872 144.211 31.0513 144.555 31.1606C144.898 31.2544 145.25 31.3013 145.609 31.3013C146.313 31.3013 146.891 31.145 147.344 30.8325C147.813 30.5044 148.18 30.0981 148.445 29.6138L151 30.8794ZM148.211 26.4263C148.195 26.2231 148.125 25.9966 148 25.7466C147.891 25.4966 147.719 25.2622 147.484 25.0435C147.266 24.8247 146.984 24.645 146.641 24.5044C146.313 24.3638 145.914 24.2935 145.445 24.2935C144.789 24.2935 144.211 24.481 143.711 24.856C143.211 25.231 142.859 25.7544 142.656 26.4263H148.211Z" fill="white"/>
<path d="M132.979 33.645V19.8638H128.291V16.8638H140.83V19.8638H136.143V33.645H132.979Z" fill="white"/>
<path d="M127.596 30.8794C127.064 31.8169 126.346 32.5747 125.439 33.1528C124.549 33.731 123.455 34.02 122.158 34.02C121.283 34.02 120.471 33.8716 119.721 33.5747C118.986 33.2622 118.346 32.8325 117.799 32.2856C117.252 31.7388 116.822 31.0981 116.51 30.3638C116.213 29.6138 116.064 28.7935 116.064 27.9028C116.064 27.0747 116.213 26.2935 116.51 25.5591C116.807 24.8091 117.221 24.1606 117.752 23.6138C118.283 23.0513 118.908 22.606 119.627 22.2778C120.361 21.9497 121.166 21.7856 122.041 21.7856C122.963 21.7856 123.783 21.9419 124.502 22.2544C125.221 22.5513 125.822 22.9731 126.307 23.52C126.791 24.0513 127.158 24.6841 127.408 25.4185C127.658 26.1528 127.783 26.9497 127.783 27.8091C127.783 27.9185 127.783 28.0122 127.783 28.0903C127.768 28.1841 127.76 28.27 127.76 28.3481C127.744 28.4263 127.736 28.5122 127.736 28.606H119.088C119.15 29.0747 119.275 29.481 119.463 29.8247C119.666 30.1528 119.908 30.4341 120.189 30.6685C120.486 30.8872 120.807 31.0513 121.15 31.1606C121.494 31.2544 121.846 31.3013 122.205 31.3013C122.908 31.3013 123.486 31.145 123.939 30.8325C124.408 30.5044 124.775 30.0981 125.041 29.6138L127.596 30.8794ZM124.807 26.4263C124.791 26.2231 124.721 25.9966 124.596 25.7466C124.486 25.4966 124.314 25.2622 124.08 25.0435C123.861 24.8247 123.58 24.645 123.236 24.5044C122.908 24.3638 122.51 24.2935 122.041 24.2935C121.385 24.2935 120.807 24.481 120.307 24.856C119.807 25.231 119.455 25.7544 119.252 26.4263H124.807Z" fill="white"/>
<path d="M108.589 22.1606H111.472V23.7544H111.659C111.8 23.4731 111.987 23.2153 112.222 22.981C112.456 22.7466 112.714 22.5435 112.995 22.3716C113.292 22.1997 113.604 22.0669 113.933 21.9731C114.276 21.8794 114.612 21.8325 114.94 21.8325C115.347 21.8325 115.69 21.8716 115.972 21.9497C116.269 22.0278 116.519 22.1294 116.722 22.2544L115.901 25.0435C115.714 24.9497 115.503 24.8794 115.269 24.8325C115.05 24.77 114.776 24.7388 114.448 24.7388C114.026 24.7388 113.644 24.8247 113.3 24.9966C112.956 25.1528 112.659 25.3794 112.409 25.6763C112.175 25.9731 111.987 26.3247 111.847 26.731C111.722 27.1216 111.659 27.5513 111.659 28.02V33.645H108.589V22.1606Z" fill="white"/>
<path d="M103.779 32.145H103.592C103.232 32.7231 102.748 33.1841 102.139 33.5278C101.529 33.856 100.834 34.02 100.053 34.02C98.5996 34.02 97.5137 33.5747 96.7949 32.6841C96.0918 31.7935 95.7402 30.606 95.7402 29.1216V22.1606H98.8105V28.7466C98.8105 29.5747 98.9902 30.1919 99.3496 30.5981C99.7246 30.9888 100.264 31.1841 100.967 31.1841C101.389 31.1841 101.756 31.0981 102.068 30.9263C102.396 30.7388 102.67 30.4966 102.889 30.1997C103.123 29.8872 103.295 29.5278 103.404 29.1216C103.529 28.6997 103.592 28.2544 103.592 27.7856V22.1606H106.662V33.645H103.779V32.145Z" fill="white"/>
<path d="M88.3955 24.7856H86.3799V22.1606H88.3955V18.645H91.4658V22.1606H94.2783V24.7856H91.4658V29.2388C91.4658 29.5044 91.4893 29.7544 91.5361 29.9888C91.5986 30.2075 91.708 30.395 91.8643 30.5513C92.083 30.8013 92.3955 30.9263 92.8018 30.9263C93.0674 30.9263 93.2783 30.9028 93.4346 30.856C93.5908 30.7935 93.7393 30.7153 93.8799 30.6216L94.7471 33.3169C94.3877 33.4888 93.9971 33.6138 93.5752 33.6919C93.1689 33.7856 92.7158 33.8325 92.2158 33.8325C91.6377 33.8325 91.1143 33.7466 90.6455 33.5747C90.1924 33.3872 89.8096 33.1372 89.4971 32.8247C88.7627 32.1216 88.3955 31.1216 88.3955 29.8247V24.7856Z" fill="white"/>
<path d="M82.2056 32.145H82.0181C81.6587 32.7231 81.1743 33.1841 80.5649 33.5278C79.9556 33.856 79.2603 34.02 78.479 34.02C77.0259 34.02 75.9399 33.5747 75.2212 32.6841C74.5181 31.7935 74.1665 30.606 74.1665 29.1216V22.1606H77.2368V28.7466C77.2368 29.5747 77.4165 30.1919 77.7759 30.5981C78.1509 30.9888 78.6899 31.1841 79.3931 31.1841C79.8149 31.1841 80.1821 31.0981 80.4946 30.9263C80.8228 30.7388 81.0962 30.4966 81.3149 30.1997C81.5493 29.8872 81.7212 29.5278 81.8306 29.1216C81.9556 28.6997 82.0181 28.2544 82.0181 27.7856V22.1606H85.0884V33.645H82.2056V32.145Z" fill="white"/>
<path d="M62.7271 16.8638H73.3677V19.8638H65.8911V23.9419H72.6177V26.9419H65.8911V33.645H62.7271V16.8638Z" fill="white"/>
<path d="M33.333 50.5002V42.1668C37.9441 42.1668 41.6663 38.4446 41.6663 33.8335H49.9997C49.9997 43.0557 42.5275 50.5002 33.333 50.5002Z" fill="#FFD11A"/>
<path d="M33.3332 50.5002V42.1668C28.7221 42.1668 24.9998 38.4446 24.9998 33.8335H16.6665C16.6665 43.0557 24.1387 50.5002 33.3332 50.5002Z" fill="#FFD11A"/>
<path d="M0 33.833H8.33333C8.33333 38.4441 12.0556 42.1663 16.6667 42.1663V50.4997C7.47222 50.4997 0 43.0552 0 33.833Z" fill="#FFD11A"/>
<path d="M0 33.8332H8.33333C8.33333 29.2221 12.0556 25.4998 16.6667 25.4998V17.1665C7.47222 17.1665 0 24.6387 0 33.8332Z" fill="#FFD11A"/>
<path d="M16.6667 0.5V8.83333C12.0556 8.83333 8.33333 12.5556 8.33333 17.1667H0C0 7.97222 7.47222 0.5 16.6667 0.5Z" fill="#FFD11A"/>
<path d="M16.6665 0.5V8.83333C21.2776 8.83333 24.9998 12.5556 24.9998 17.1667H33.3332C33.3332 7.97222 25.8609 0.5 16.6665 0.5Z" fill="#FFD11A"/>
<path d="M50.0002 17.1667H41.6668C41.6668 12.5556 37.9446 8.83333 33.3335 8.83333V0.5C42.5279 0.5 50.0002 7.97222 50.0002 17.1667Z" fill="#FFD11A"/>
<path d="M50.0002 17.1665H41.6668C41.6668 21.7776 37.9446 25.4998 33.3335 25.4998V33.8332C42.5279 33.8332 50.0002 26.3887 50.0002 17.1665Z" fill="#FFD11A"/>
</svg>
