<svg width="150" height="151" viewBox="0 0 150 151" fill="none" xmlns="http://www.w3.org/2000/svg">
<path d="M99.999 150.5V125.5C113.832 125.5 124.999 114.333 124.999 100.5H149.998C149.998 128.167 127.582 150.5 99.999 150.5Z" fill="#FFD11A"/>
<path d="M99.9994 150.5V125.5C86.1662 125.5 74.9997 114.333 74.9997 100.5H50C50 128.167 72.4164 150.5 99.9994 150.5Z" fill="#FFD11A"/>
<path d="M0 100.498H24.9997C24.9997 114.331 36.1662 125.497 49.9994 125.497V150.497C22.4164 150.497 0 128.164 0 100.498Z" fill="#FFD11A"/>
<path d="M0 100.499H24.9997C24.9997 86.6659 36.1662 75.4994 49.9994 75.4994V50.4997C22.4164 50.4997 0 72.9161 0 100.499Z" fill="#FFD11A"/>
<path d="M49.9994 0.500305V25.5C36.1662 25.5 24.9997 36.6665 24.9997 50.4997H0C0 22.9167 22.4164 0.500305 49.9994 0.500305Z" fill="#FFD11A"/>
<path d="M50 0.500305V25.5C63.8332 25.5 74.9997 36.6665 74.9997 50.4997H99.9994C99.9994 22.9167 77.583 0.500305 50 0.500305Z" fill="#FFD11A"/>
<path d="M149.998 50.4997H124.999C124.999 36.6665 113.832 25.5 99.999 25.5V0.500305C127.582 0.500305 149.998 22.9167 149.998 50.4997Z" fill="#FFD11A"/>
<path d="M149.998 50.4993H124.999C124.999 64.3324 113.832 75.499 99.999 75.499V100.499C127.582 100.499 149.998 78.1656 149.998 50.4993Z" fill="#FFD11A"/>
</svg>
